<?xml version="1.0" encoding="UTF-8" standalone="no"?>
<!DOCTYPE svg PUBLIC "-//W3C//DTD SVG 1.1//EN"
 "http://www.w3.org/Graphics/SVG/1.1/DTD/svg11.dtd">
<!-- Generated by graphviz version 5.0.0 (20220707.1540)
 -->
<!-- Title: dependencies Pages: 1 -->
<svg width="504pt" height="247pt"
 viewBox="0.00 0.00 504.00 246.80" xmlns="http://www.w3.org/2000/svg" xmlns:xlink="http://www.w3.org/1999/xlink">
<g id="graph0" class="graph" transform="scale(1 1) rotate(0) translate(4 242.8)">
<title>dependencies</title>
<polygon fill="white" stroke="transparent" points="-4,4 -4,-242.8 500,-242.8 500,4 -4,4"/>
<text text-anchor="middle" x="248" y="-8.2" font-family="sans-serif" font-size="14.00">dependencies</text>
<g id="clust1" class="cluster">
<title>cluster_AppModule</title>
<polygon fill="none" stroke="black" stroke-dasharray="1,5" points="8,-32.8 8,-230.8 488,-230.8 488,-32.8 8,-32.8"/>
</g>
<g id="clust2" class="cluster">
<title>cluster_AppModule_declarations</title>
<polygon fill="none" stroke="black" points="168,-40.8 168,-92.8 480,-92.8 480,-40.8 168,-40.8"/>
</g>
<g id="clust5" class="cluster">
<title>cluster_AppModule_imports</title>
<polygon fill="none" stroke="black" points="16,-40.8 16,-92.8 160,-92.8 160,-40.8 16,-40.8"/>
</g>
<g id="clust7" class="cluster">
<title>cluster_AppModule_bootstrap</title>
<polygon fill="none" stroke="black" points="200,-170.8 200,-222.8 324,-222.8 324,-170.8 200,-170.8"/>
</g>
<!-- AppComponent -->
<g id="node1" class="node">
<title>AppComponent</title>
<polygon fill="#ffffb3" stroke="black" points="471.94,-84.8 366.06,-84.8 366.06,-48.8 471.94,-48.8 471.94,-84.8"/>
<text text-anchor="middle" x="419" y="-62.6" font-family="Times,serif" font-size="14.00">AppComponent</text>
</g>
<!-- AppModule -->
<g id="node3" class="node">
<title>AppModule</title>
<polygon fill="#8dd3c7" stroke="black" points="303.66,-149.8 300.66,-153.8 279.66,-153.8 276.66,-149.8 220.34,-149.8 220.34,-113.8 303.66,-113.8 303.66,-149.8"/>
<text text-anchor="middle" x="262" y="-127.6" font-family="Times,serif" font-size="14.00">AppModule</text>
</g>
<!-- AppComponent&#45;&gt;AppModule -->
<g id="edge1" class="edge">
<title>AppComponent&#45;&gt;AppModule</title>
<path fill="none" stroke="black" d="M419,-84.91C419,-104.14 419,-131.8 419,-131.8 419,-131.8 314.07,-131.8 314.07,-131.8"/>
<polygon fill="black" stroke="black" points="314.07,-128.3 304.07,-131.8 314.07,-135.3 314.07,-128.3"/>
</g>
<!-- CocktailsSearchComponent -->
<g id="node2" class="node">
<title>CocktailsSearchComponent</title>
<polygon fill="#ffffb3" stroke="black" points="348.3,-84.8 175.7,-84.8 175.7,-48.8 348.3,-48.8 348.3,-84.8"/>
<text text-anchor="middle" x="262" y="-62.6" font-family="Times,serif" font-size="14.00">CocktailsSearchComponent</text>
</g>
<!-- CocktailsSearchComponent&#45;&gt;AppModule -->
<g id="edge2" class="edge">
<title>CocktailsSearchComponent&#45;&gt;AppModule</title>
<path fill="none" stroke="black" d="M262,-84.91C262,-84.91 262,-103.79 262,-103.79"/>
<polygon fill="black" stroke="black" points="258.5,-103.79 262,-113.79 265.5,-103.79 258.5,-103.79"/>
</g>
<!-- AppComponent  -->
<g id="node5" class="node">
<title>AppComponent </title>
<polygon fill="#80b1d3" stroke="black" points="316.44,-214.8 207.56,-214.8 207.56,-178.8 316.44,-178.8 316.44,-214.8"/>
<text text-anchor="middle" x="262" y="-192.6" font-family="Times,serif" font-size="14.00">AppComponent </text>
</g>
<!-- AppModule&#45;&gt;AppComponent  -->
<g id="edge4" class="edge">
<title>AppModule&#45;&gt;AppComponent </title>
<path fill="none" stroke="black" stroke-dasharray="1,5" d="M262,-149.91C262,-149.91 262,-168.79 262,-168.79"/>
<polygon fill="black" stroke="black" points="258.5,-168.79 262,-178.79 265.5,-168.79 258.5,-168.79"/>
</g>
<!-- AppRoutingModule -->
<g id="node4" class="node">
<title>AppRoutingModule</title>
<polygon fill="#8dd3c7" stroke="black" points="152.28,-84.8 149.28,-88.8 128.28,-88.8 125.28,-84.8 23.72,-84.8 23.72,-48.8 152.28,-48.8 152.28,-84.8"/>
<text text-anchor="middle" x="88" y="-62.6" font-family="Times,serif" font-size="14.00">AppRoutingModule</text>
</g>
<!-- AppRoutingModule&#45;&gt;AppModule -->
<g id="edge3" class="edge">
<title>AppRoutingModule&#45;&gt;AppModule</title>
<path fill="none" stroke="black" d="M88,-84.91C88,-104.14 88,-131.8 88,-131.8 88,-131.8 210.32,-131.8 210.32,-131.8"/>
<polygon fill="black" stroke="black" points="210.32,-135.3 220.32,-131.8 210.32,-128.3 210.32,-135.3"/>
</g>
</g>
</svg>
